<svg fill="#000000" xmlns="http://www.w3.org/2000/svg" width="53.929" height="40" viewBox="0 0 53.929 40">
<defs>
<style></style>
</defs>
<path d="M308.911,164.468a1.611,1.611,0,0,1-.2-3.21,35.2,35.2,0,0,0,12.84-3.886c2.915-1.7,4.521-3.7,4.521-5.622,0-2.124-1.878-3.862-3.455-4.946a1.611,1.611,0,1,1,1.827-2.655c3.173,2.183,4.851,4.811,4.851,7.6,0,3.167-2.116,6.074-6.121,8.407a37.883,37.883,0,0,1-14.055,4.3A1.712,1.712,0,0,1,308.911,164.468Zm0,0" transform="translate(-275.364 -129.207)"/>
<path d="M27.11,156.649l-4.3-4.3a1.611,1.611,0,0,0-2.279,2.279l1.256,1.256a38.828,38.828,0,0,1-12.575-3.247c-3.808-1.831-5.991-4.164-5.991-6.4,0-1.9,1.564-3.868,4.4-5.55a1.612,1.612,0,1,0-1.643-2.773C1.038,140.847,0,144.06,0,146.24c0,3.575,2.776,6.88,7.818,9.3a42.882,42.882,0,0,0,14.489,3.629l-1.773,1.773a1.612,1.612,0,0,0,2.279,2.279l4.3-4.3A1.612,1.612,0,0,0,27.11,156.649Zm0,0" transform="translate(0 -123.697)"/>
<path d="M100.284,100.563v-.388c0-1.368-.837-1.633-1.96-1.633-.694,0-.919-.612-.919-1.225s.225-1.225.919-1.225c.776,0,1.592-.1,1.592-1.755,0-1.184-.674-1.47-1.511-1.47-1,0-1.51.245-1.51,1.041,0,.694-.306,1.163-1.49,1.163-1.47,0-1.653-.306-1.653-1.286,0-1.592,1.143-3.654,4.654-3.654,2.593,0,4.552.939,4.552,3.695,0,1.49-.551,2.878-1.572,3.348a2.959,2.959,0,0,1,2.082,3v.388c0,3.348-2.306,4.613-5.164,4.613-3.511,0-4.858-2.143-4.858-3.858,0-.919.388-1.164,1.51-1.164,1.306,0,1.633.286,1.633,1.062,0,.959.9,1.184,1.817,1.184C99.793,102.4,100.284,101.89,100.284,100.563Zm0,0" transform="translate(-83.647 -80.75)"/>
<path d="M218.8,100.176v.184c0,3.511-2.184,4.817-5,4.817s-5.022-1.306-5.022-4.817V94.95c0-3.511,2.266-4.817,5.205-4.817,3.45,0,4.817,2.143,4.817,3.837,0,.98-.47,1.286-1.49,1.286-.878,0-1.653-.225-1.653-1.163,0-.776-.816-1.184-1.776-1.184-1.2,0-1.919.633-1.919,2.041v1.837a3.265,3.265,0,0,1,2.552-.9C216.836,95.889,218.8,96.909,218.8,100.176Zm-6.838.408c0,1.408.694,2.021,1.837,2.021s1.817-.612,1.817-2.021V100.4c0-1.49-.674-2.062-1.837-2.062a1.638,1.638,0,0,0-1.817,1.878Zm0,0" transform="translate(-186.881 -80.75)"/>
<path d="M325.055,100.359V94.95c0-3.511,2.184-4.817,5-4.817s5.021,1.306,5.021,4.817v5.409c0,3.511-2.2,4.817-5.021,4.817S325.055,103.87,325.055,100.359Zm6.838-5.409c0-1.408-.694-2.041-1.837-2.041s-1.817.633-1.817,2.041v5.409c0,1.408.673,2.041,1.817,2.041s1.837-.633,1.837-2.041Zm0,0" transform="translate(-290.969 -80.75)"/>
<path d="M414.186,9.669a4.834,4.834,0,1,1,4.834-4.834A4.84,4.84,0,0,1,414.186,9.669Zm0-6.446A1.611,1.611,0,1,0,415.8,4.834,1.613,1.613,0,0,0,414.186,3.223Zm0,0" transform="translate(-366.451)"/>
</svg>