<svg fill="#000000" xmlns="http://www.w3.org/2000/svg" width="42.575" height="37.315" viewBox="0 0 42.575 37.315">
	<defs>
	</defs>
	<g transform="translate(0 -26.576)">
		<g transform="translate(0 26.576)">
			<g transform="translate(0 0)">
				<path d="M178.332,159.668a4.343,4.343,0,1,0,4.343,4.343A4.343,4.343,0,0,0,178.332,159.668Zm0,6.618a2.275,2.275,0,1,1,0-4.55h0a2.275,2.275,0,0,1,0,4.55Z" transform="translate(-156.771 -146.498)" />
				<path d="M38.88,29.82,10.652,26.614a3.877,3.877,0,0,0-3.05.879,3.929,3.929,0,0,0-1.5,2.688l-.517,4.239h-1.6A4.155,4.155,0,0,0,0,38.712V59.858a3.929,3.929,0,0,0,3.824,4.032q.078,0,.157,0H32.366a4.244,4.244,0,0,0,4.343-4.033V59.03a5.17,5.17,0,0,0,1.965-.827,4.291,4.291,0,0,0,1.5-2.792l2.378-20.99A4.188,4.188,0,0,0,38.88,29.82ZM34.64,59.858a2.177,2.177,0,0,1-2.275,1.965H3.982a1.861,1.861,0,0,1-1.915-1.806q0-.079,0-.159V56.032l8.014-5.894a2.482,2.482,0,0,1,3.205.155l5.635,4.963a4.86,4.86,0,0,0,3.05,1.137,4.7,4.7,0,0,0,2.482-.672l10.185-5.894v10.03Zm0-12.46L23.37,53.964a2.637,2.637,0,0,1-3.05-.258L14.632,48.69a4.6,4.6,0,0,0-5.739-.207L2.069,53.447V38.712a2.087,2.087,0,0,1,1.913-2.223H32.366a2.378,2.378,0,0,1,2.275,2.223V47.4Zm5.844-13.256,0,.021-2.43,20.99a1.758,1.758,0,0,1-.672,1.4c-.207.207-.672.31-.672.414V38.712a4.446,4.446,0,0,0-4.343-4.291H7.653l.465-4.033a2.378,2.378,0,0,1,.776-1.344,2.378,2.378,0,0,1,1.551-.414l28.177,3.257A2.068,2.068,0,0,1,40.485,34.142Z" transform="translate(0 -26.576)" />
			</g>
		</g>
	</g>
</svg>
