<svg xmlns="http://www.w3.org/2000/svg" width="40" height="38.95" viewBox="0 0 40 38.95"><defs><style>.a{fill:#63469e;}</style></defs><path class="a" d="M39.907,18.928h0l-.012-.1v-.009l-.046-.386-.032-.266-.01-.08-.02,0a15.192,15.192,0,0,0-3.9-7.657,19.9,19.9,0,0,0-7.763-5.11A23.557,23.557,0,0,0,19.98,3.893,22.842,22.842,0,0,0,9.288,6.482C3.142,9.748-.484,15.751.052,21.776a15.783,15.783,0,0,0,3.532,8.582,19.051,19.051,0,0,0,7.487,5.485,28.467,28.467,0,0,0,5.57,1.5l.225.045c.529.1.671.248.708.305a.662.662,0,0,1,.005.429c-.025.106-.051.212-.077.317a6.324,6.324,0,0,0-.252,2.67,1.862,1.862,0,0,0,1.889,1.735h0a7,7,0,0,0,3.134-1.208l.109-.064c1.947-1.144,3.782-2.434,5.163-3.43,3.021-2.18,6.446-4.65,9.013-7.847A15.5,15.5,0,0,0,39.907,18.928Zm-27.45,6.1H9.006a.944.944,0,0,1-.944-.944V16.839a.944.944,0,0,1,1.889,0v6.3h2.506a.944.944,0,0,1,0,1.889Zm3.6-.97a.944.944,0,1,1-1.889,0V16.813a.944.944,0,1,1,1.889,0Zm8.535,0a.944.944,0,0,1-1.708.555l-3.4-4.683v4.128a.944.944,0,1,1-1.889,0V17.021a.944.944,0,0,1,1.708-.555l3.4,4.683V16.813a.944.944,0,1,1,1.889,0Zm6.881.8H26.8a.944.944,0,0,1-.944-.944V16.665a.944.944,0,0,1,.944-.944h4.528a.944.944,0,0,1,0,1.889H27.743v1.733h2.909a.944.944,0,0,1,0,1.889H27.743v1.733h3.729a.944.944,0,0,1,0,1.889Z" transform="translate(0 -3.893)"/></svg>