<svg xmlns="http://www.w3.org/2000/svg" width="36" height="36" viewBox="0 0 36 36">
	<defs>
	</defs>
	<g transform="translate(0)">
		<path d="M18,0A18,18,0,1,0,36,18,18,18,0,0,0,18,0Zm0,33.429A15.429,15.429,0,1,1,33.429,18,15.429,15.429,0,0,1,18,33.429Z" transform="translate(0)" />
	</g>
	<g transform="translate(12.854 11.568)">
		<path d="M183.4,159.446a1.286,1.286,0,0,0-.577-.577l-10.29-5.145a1.286,1.286,0,0,0-1.861,1.151v10.29a1.286,1.286,0,0,0,1.861,1.151l10.29-5.145A1.286,1.286,0,0,0,183.4,159.446Zm-10.157,3.638v-6.128l6.128,3.064Z" transform="translate(-170.666 -153.587)" />
	</g>
</svg>
