<?xml version="1.0" encoding="UTF-8" standalone="no"?>
<svg
   aria-hidden="true"
   focusable="false"
   data-prefix="far"
   data-icon="square-s"
   class="svg-inline--fa fa-square-s fa-w-14"
   role="img"
   viewBox="0 0 448 512"
   version="1.1"
   id="svg4"
   sodipodi:docname="https://lazudi.com/images/icons/studio.svg"
   inkscape:version="1.1 (1:1.1+202105261517+ce6663b3b7)"
   xmlns:inkscape="http://www.inkscape.org/namespaces/inkscape"
   xmlns:sodipodi="http://sodipodi.sourceforge.net/DTD/sodipodi-0.dtd"
   xmlns="http://www.w3.org/2000/svg"
   xmlns:svg="http://www.w3.org/2000/svg">
  <defs
     id="defs8" />
  <sodipodi:namedview
     id="namedview6"
     pagecolor="#ffffff"
     bordercolor="#666666"
     borderopacity="1.0"
     inkscape:pageshadow="2"
     inkscape:pageopacity="0.0"
     inkscape:pagecheckerboard="0"
     showgrid="false"
     inkscape:zoom="1.3769531"
     inkscape:cx="224.04539"
     inkscape:cy="255.63688"
     inkscape:window-width="1864"
     inkscape:window-height="1051"
     inkscape:window-x="56"
     inkscape:window-y="0"
     inkscape:window-maximized="1"
     inkscape:current-layer="svg4" />
  <path
     fill="currentColor"
     d="M384 32H64C28.65 32 0 60.65 0 96v320c0 35.35 28.65 64 64 64h320c35.35 0 64-28.65 64-64V96C448 60.65 419.3 32 384 32zM400 416c0 8.822-7.178 16-16 16H64c-8.822 0-16-7.178-16-16V96c0-8.822 7.178-16 16-16h320c8.822 0 16 7.178 16 16V416zM230.4 232.9C180.5 219.1 173.7 212.4 176.5 196.6c1.031-5.688 4.156-10.27 9.344-13.61c8.594-5.547 30.84-12.88 83.63 .5781c12.81 3.297 25.94-4.469 29.19-17.31c3.281-12.84-4.469-25.92-17.31-29.19c-53.66-13.69-94.47-11.81-121.5 5.562C143.5 153.2 132.7 169.4 129.3 188.2c-11.28 63.38 48.66 80 88.31 91c49.94 13.86 56.69 20.53 53.88 36.31c-1.312 7.312-4.344 11.81-10.12 15.06c-18.09 10.09-58.5 5.844-100.6-10.7c-12.22-4.75-26.28 1.188-31.12 13.58c-4.844 12.33 1.219 26.27 13.56 31.11c18.31 7.172 54.88 19.48 90.63 19.48c18 0 35.78-3.109 50.94-11.58c18.38-10.28 30.09-27.06 33.94-48.53C329.1 260.6 270.1 243.9 230.4 232.9z"
     id="path2"
     style="fill:#393650;fill-opacity:1" />
</svg>
