<svg xmlns="http://www.w3.org/2000/svg" width="40.462" height="40.462" viewBox="0 0 40.462 40.462"><defs><style>.a{fill:#63469e;}</style></defs><path class="a" d="M11.745,0A11.768,11.768,0,0,0,0,11.745V28.717A11.768,11.768,0,0,0,11.745,40.462H28.717A11.768,11.768,0,0,0,40.462,28.717V11.745A11.768,11.768,0,0,0,28.717,0Zm0,3.112H28.717a8.607,8.607,0,0,1,8.632,8.632V28.717a8.607,8.607,0,0,1-8.632,8.632H11.745a8.607,8.607,0,0,1-8.632-8.632V11.745A8.607,8.607,0,0,1,11.745,3.112ZM31.9,6.225a2.334,2.334,0,1,0,2.334,2.334A2.335,2.335,0,0,0,31.9,6.225ZM20.231,9.337A10.894,10.894,0,1,0,31.125,20.231,10.915,10.915,0,0,0,20.231,9.337Zm0,3.112a7.781,7.781,0,1,1-7.781,7.781A7.757,7.757,0,0,1,20.231,12.45Z"/></svg>