<svg xmlns="http://www.w3.org/2000/svg" width="40" height="40" viewBox="0 0 40 40"><defs><style>.a{fill:#63469e;}</style></defs><path class="a" d="M34.331,34.951v0h.01V20.279c0-7.177-1.545-12.7-9.935-12.7a8.71,8.71,0,0,0-7.845,4.312h-.117V8.244H8.489v26.7h8.283V21.726c0-3.482.66-6.848,4.972-6.848,4.248,0,4.312,3.973,4.312,7.072v13Z" transform="translate(5.659 5.049)"/><path class="a" d="M.4,7.977H8.689v26.7H.4Z" transform="translate(0.264 5.318)"/><path class="a" d="M4.8,0a4.826,4.826,0,1,0,4.8,4.8A4.8,4.8,0,0,0,4.8,0Z"/></svg>