<svg xmlns="http://www.w3.org/2000/svg" width="40.462" height="30.04" viewBox="0 0 40.462 30.04"><defs><style>.a{fill:#63469e;}</style></defs><path class="a" d="M42.332,14.163a5.333,5.333,0,0,0-4.224-4.037A83.526,83.526,0,0,0,23.088,9,84.756,84.756,0,0,0,7.976,10.126a5.21,5.21,0,0,0-4.224,4.037A61.593,61.593,0,0,0,3,24.02a51.092,51.092,0,0,0,.843,9.857,5.343,5.343,0,0,0,4.224,4.037A86.355,86.355,0,0,0,23.183,39.04,86.355,86.355,0,0,0,38.3,37.914a5.215,5.215,0,0,0,4.224-4.037,72.012,72.012,0,0,0,.939-9.857A65.689,65.689,0,0,0,42.332,14.163ZM18.02,30.591V17.449L29.472,24.02Z" transform="translate(-3 -9)"/></svg>