<svg fill="#000000" xmlns="http://www.w3.org/2000/svg" width="37" height="37" viewBox="0 0 37 37">
	<defs>
	</defs>
	<g transform="translate(-2.202 -26.565)">
		<path d="M35.32,0H1.684A1.682,1.682,0,0,0,0,1.682V35.318A1.682,1.682,0,0,0,1.684,37h19.06a1.682,1.682,0,1,0,0-3.364H3.366V19.061h7.848v6.166a1.682,1.682,0,1,0,3.364,0V9.53a1.682,1.682,0,0,0-3.364,0V15.7H3.366V3.364H20.184v8.409a1.682,1.682,0,0,0,1.682,1.682h7.848a1.682,1.682,0,1,0,0-3.364H23.547V3.364H33.638V23.546H21.865a1.682,1.682,0,1,0,0,3.364H33.638v6.727h-2.8a1.682,1.682,0,1,0,0,3.364H35.32A1.682,1.682,0,0,0,37,35.318V1.682A1.682,1.682,0,0,0,35.32,0Z" transform="translate(2.2 26.565)" />
	</g>
</svg>
