<svg xmlns="http://www.w3.org/2000/svg" width="62" height="61" viewBox="0 0 62 61"><defs><style>.a{fill:none;}.b{fill:#fe6c65;}</style></defs><g transform="translate(-2270 -969.5)"><ellipse class="a" cx="31" cy="30.5" rx="31" ry="30.5" transform="translate(2270 969.5)"/><g transform="translate(2279.21 976.675)"><path class="b" d="M52.414,23.619a1.35,1.35,0,0,1,0-1.193l1.717-3.513A4,4,0,0,0,52.407,13.6l-3.455-1.833a1.35,1.35,0,0,1-.7-.965l-.676-3.852A4,4,0,0,0,43.06,3.674l-3.872.548a1.349,1.349,0,0,1-1.134-.369L35.243,1.134a4,4,0,0,0-5.582,0L26.85,3.853a1.35,1.35,0,0,1-1.134.369l-3.872-.548a4,4,0,0,0-4.516,3.281l-.676,3.852a1.35,1.35,0,0,1-.7.965L12.5,13.6a4,4,0,0,0-1.725,5.309l1.717,3.513a1.349,1.349,0,0,1,0,1.193l-1.717,3.513A4,4,0,0,0,12.5,32.441l3.455,1.833a1.35,1.35,0,0,1,.7.965l.676,3.852a4,4,0,0,0,3.941,3.321,4.106,4.106,0,0,0,.575-.041l3.872-.548a1.349,1.349,0,0,1,1.134.369l2.811,2.719a4,4,0,0,0,5.582,0l2.811-2.719a1.351,1.351,0,0,1,1.134-.369l3.872.548a4,4,0,0,0,4.516-3.281l.676-3.852a1.35,1.35,0,0,1,.7-.965l3.455-1.833a4,4,0,0,0,1.725-5.309ZM27.14,11.071a4.869,4.869,0,1,1-4.869,4.869A4.875,4.875,0,0,1,27.14,11.071ZM24.627,32.726a1.328,1.328,0,1,1-1.878-1.878L40.277,13.32A1.328,1.328,0,0,1,42.155,15.2Zm13.137,2.249a4.869,4.869,0,1,1,4.869-4.869A4.875,4.875,0,0,1,37.763,34.974Z" transform="translate(-10.359 0.002)"/><g transform="translate(0 0)"><path class="b" d="M52.414,23.619a1.35,1.35,0,0,1,0-1.193l1.717-3.513A4,4,0,0,0,52.407,13.6l-3.455-1.833a1.35,1.35,0,0,1-.7-.965l-.676-3.852A4,4,0,0,0,43.06,3.674l-3.872.548a1.349,1.349,0,0,1-1.134-.369L35.243,1.134a4,4,0,0,0-5.582,0L26.85,3.853a1.35,1.35,0,0,1-1.134.369l-3.872-.548a4,4,0,0,0-4.516,3.281l-.676,3.852a1.35,1.35,0,0,1-.7.965L12.5,13.6a4,4,0,0,0-1.725,5.309l1.717,3.513a1.349,1.349,0,0,1,0,1.193l-1.717,3.513A4,4,0,0,0,12.5,32.441l3.455,1.833a1.35,1.35,0,0,1,.7.965l.676,3.852a4,4,0,0,0,3.941,3.321,4.106,4.106,0,0,0,.575-.041l3.872-.548a1.349,1.349,0,0,1,1.134.369l2.811,2.719a4,4,0,0,0,5.582,0l2.811-2.719a1.351,1.351,0,0,1,1.134-.369l3.872.548a4,4,0,0,0,4.516-3.281l.676-3.852a1.35,1.35,0,0,1,.7-.965l3.455-1.833a4,4,0,0,0,1.725-5.309ZM27.14,11.071a4.869,4.869,0,1,1-4.869,4.869A4.875,4.875,0,0,1,27.14,11.071ZM24.627,32.726a1.328,1.328,0,1,1-1.878-1.878L40.277,13.32A1.328,1.328,0,0,1,42.155,15.2Zm13.137,2.249a4.869,4.869,0,1,1,4.869-4.869A4.875,4.875,0,0,1,37.763,34.974Z" transform="translate(-10.359 0.002)"/></g><g transform="translate(26.346 29.115)"><g transform="translate(0)"><path class="b" d="M291.754,310.141a1.3,1.3,0,1,0,1.3,1.3A1.3,1.3,0,0,0,291.754,310.141Z" transform="translate(-290.452 -310.141)"/></g></g><g transform="translate(15.235 14.33)"><path class="b" d="M173.635,152.646a1.3,1.3,0,1,0,1.3,1.3A1.3,1.3,0,0,0,173.635,152.646Z" transform="translate(-172.333 -152.646)"/></g></g></g></svg>