<svg xmlns="http://www.w3.org/2000/svg" width="43.079" height="43.055" viewBox="0 0 43.079 43.055"><defs><style>.a{fill:#393650;}</style></defs><path class="a" d="M15.459,7.329a47.725,47.725,0,0,1,4.4-2.56l.024-.014A10.956,10.956,0,0,0,0,11.1V42.779a.422.422,0,0,0,.422.422H4.643a.422.422,0,0,0,.422-.422V11.1A5.876,5.876,0,0,1,15.459,7.329Z" transform="translate(0 -0.146)"/><path class="a" d="M264.106,311.739a1.266,1.266,0,0,0,1.041-1.457l-.2-1.173a1.266,1.266,0,1,0-2.5.417l.2,1.173A1.266,1.266,0,0,0,264.106,311.739Z" transform="translate(-240.28 -282.057)"/><path class="a" d="M331.9,273.773a1.266,1.266,0,0,0,.484-1.724l-.547-.975a1.266,1.266,0,0,0-2.209,1.24l.548.975A1.266,1.266,0,0,0,331.9,273.773Z" transform="translate(-301.657 -247.61)"/><path class="a" d="M399.632,235.68a1.266,1.266,0,0,0-.129-1.786l-.9-.778a1.266,1.266,0,0,0-1.657,1.915l.9.778A1.266,1.266,0,0,0,399.632,235.68Z" transform="translate(-363.035 -213.166)"/><path class="a" d="M271.322,397.853a1.266,1.266,0,0,0-2.506.365l.177,1.216a1.266,1.266,0,0,0,2.506-.365Z" transform="translate(-246.11 -363.286)"/><path class="a" d="M338,360.091a1.266,1.266,0,1,0-2.348.949l.434,1.073a1.266,1.266,0,0,0,2.348-.949Z" transform="translate(-307.234 -328.979)"/><path class="a" d="M404.609,322.345a1.266,1.266,0,1,0-2.033,1.51l.69.929a1.266,1.266,0,1,0,2.033-1.51Z" transform="translate(-368.361 -294.677)"/><path class="a" d="M472.107,285.443l-.946-.785a1.266,1.266,0,1,0-1.617,1.949l.946.785a1.266,1.266,0,0,0,1.617-1.949Z" transform="translate(-429.486 -260.372)"/><path class="a" d="M172.84,83.439l14.1-7.975-.4-.713a6.065,6.065,0,0,0-8.272-2.3c-3.806,2.152-3.867,2.154-4.4,2.588a6.07,6.07,0,0,0-1.433,7.682Z" transform="translate(-157.157 -65.629)"/><path class="a" d="M195.106,132.333l-.559-.988a1.277,1.277,0,0,0-1.737-.483l-17.115,9.68a1.277,1.277,0,0,0-.482,1.737l.559.989a1.717,1.717,0,0,0,2.339.649l16.346-9.245A1.716,1.716,0,0,0,195.106,132.333Z" transform="translate(-160.271 -119.676)"/></svg>