<?xml version="1.0" encoding="UTF-8" standalone="no"?>
<svg
   xmlns:dc="http://purl.org/dc/elements/1.1/"
   xmlns:cc="http://creativecommons.org/ns#"
   xmlns:rdf="http://www.w3.org/1999/02/22-rdf-syntax-ns#"
   xmlns:svg="http://www.w3.org/2000/svg"
   xmlns="http://www.w3.org/2000/svg"
   id="svg4"
   version="1.1"
   viewBox="0 0 448 512"
   role="img"
   class="svg-inline--fa fa-check-square fa-w-14"
   data-icon="check-square"
   data-prefix="fal"
   focusable="false"
   aria-hidden="true">
  <metadata
     id="metadata10">
    <rdf:RDF>
      <cc:Work
         rdf:about="">
        <dc:format>image/svg+xml</dc:format>
        <dc:type
           rdf:resource="http://purl.org/dc/dcmitype/StillImage" />
        <dc:title></dc:title>
      </cc:Work>
    </rdf:RDF>
  </metadata>
  <defs
     id="defs8" />
  <path
     style="fill:#ffffff"
     id="path2"
     d="M400 32H48C21.49 32 0 53.49 0 80v352c0 26.51 21.49 48 48 48h352c26.51 0 48-21.49 48-48V80c0-26.51-21.49-48-48-48zm0 32c8.823 0 16 7.178 16 16v352c0 8.822-7.177 16-16 16H48c-8.822 0-16-7.178-16-16V80c0-8.822 7.178-16 16-16h352m-34.301 98.293l-8.451-8.52c-4.667-4.705-12.265-4.736-16.97-.068l-163.441 162.13-68.976-69.533c-4.667-4.705-12.265-4.736-16.97-.068l-8.52 8.451c-4.705 4.667-4.736 12.265-.068 16.97l85.878 86.572c4.667 4.705 12.265 4.736 16.97.068l180.48-179.032c4.704-4.667 4.735-12.265.068-16.97z"
     fill="currentColor" />
</svg>
